<svg width="275" height="54" viewBox="0 0 275 54" fill="none" xmlns="http://www.w3.org/2000/svg">
<g clip-path="url(#clip0_1_2)">
<path d="M4.9043 49V6.03125H16.5498C19.6748 6.03125 21.9453 6.79622 23.3613 8.32617C24.7936 9.83984 25.5098 12.3464 25.5098 15.8457V17.7256C25.5098 19.7438 25.1436 21.3796 24.4111 22.6328C23.695 23.8861 22.5964 24.708 21.1152 25.0986C23.0521 25.5869 24.346 26.7344 24.9971 28.541C25.6644 30.3314 25.998 32.5205 25.998 35.1084C25.998 37.8916 25.7376 40.3249 25.2168 42.4082C24.696 44.4915 23.752 46.111 22.3848 47.2666C21.0176 48.4222 19.0726 49 16.5498 49H4.9043ZM13.3027 22.2178H15.0605C15.8581 22.2178 16.3708 21.9085 16.5986 21.29C16.8265 20.6715 16.9404 19.931 16.9404 19.0684V14.7471C16.9404 13.3636 16.3301 12.6719 15.1094 12.6719H13.3027V22.2178ZM14.1572 41.4316C16.387 41.4316 17.502 40.3737 17.502 38.2578V32.8867C17.502 31.666 17.3148 30.7057 16.9404 30.0059C16.5824 29.2897 15.8988 28.9316 14.8896 28.9316H13.3027V41.3828C13.6608 41.4154 13.9456 41.4316 14.1572 41.4316ZM36.5801 49V6.03125H53.7676V14.332H45.3203V22.7061H53.4258V30.7871H45.3203V40.626H54.3291V49H36.5801ZM75.1406 49.3906C71.2181 49.3906 68.3861 48.4141 66.6445 46.4609C64.9193 44.5078 64.0566 41.3991 64.0566 37.1348V32.9355H72.5527V38.3066C72.5527 39.2995 72.6992 40.0807 72.9922 40.6504C73.3014 41.2038 73.8304 41.4805 74.5791 41.4805C75.3604 41.4805 75.8975 41.2526 76.1904 40.7969C76.4997 40.3411 76.6543 39.5924 76.6543 38.5508C76.6543 37.2324 76.5241 36.1338 76.2637 35.2549C76.0033 34.3597 75.5475 33.5133 74.8965 32.7158C74.2617 31.902 73.3747 30.958 72.2354 29.8838L68.3779 26.2217C65.4971 23.5036 64.0566 20.3949 64.0566 16.8955C64.0566 13.2334 64.903 10.4421 66.5957 8.52148C68.3047 6.60091 70.7705 5.64062 73.9932 5.64062C77.932 5.64062 80.7233 6.69043 82.3672 8.79004C84.0273 10.8896 84.8574 14.0798 84.8574 18.3604H76.1172V15.4062C76.1172 14.8203 75.9463 14.3646 75.6045 14.0391C75.279 13.7135 74.8314 13.5508 74.2617 13.5508C73.5781 13.5508 73.0736 13.7461 72.748 14.1367C72.4388 14.5111 72.2842 14.9993 72.2842 15.6016C72.2842 16.2038 72.4469 16.8548 72.7725 17.5547C73.098 18.2546 73.7409 19.0602 74.7012 19.9717L79.6572 24.7324C80.6501 25.6764 81.5615 26.6774 82.3916 27.7354C83.2217 28.777 83.889 29.9977 84.3936 31.3975C84.8981 32.7809 85.1504 34.4736 85.1504 36.4756C85.1504 40.512 84.4017 43.6777 82.9043 45.9727C81.4232 48.2513 78.8353 49.3906 75.1406 49.3906ZM99.4678 49V14.2832H94.3652V6.03125H113.164V14.2832H108.062V49H99.4678Z" fill="#ECF3DA"/>
<path d="M130.591 49H129.591V50H130.591V49ZM130.591 14.2832H131.591V13.2832H130.591V14.2832ZM125.488 14.2832H124.488V15.2832H125.488V14.2832ZM125.488 6.03125V5.03125H124.488V6.03125H125.488ZM144.287 6.03125H145.287V5.03125H144.287V6.03125ZM144.287 14.2832V15.2832H145.287V14.2832H144.287ZM139.185 14.2832V13.2832H138.185V14.2832H139.185ZM139.185 49V50H140.185V49H139.185ZM131.591 49V14.2832H129.591V49H131.591ZM130.591 13.2832H125.488V15.2832H130.591V13.2832ZM126.488 14.2832V6.03125H124.488V14.2832H126.488ZM125.488 7.03125H144.287V5.03125H125.488V7.03125ZM143.287 6.03125V14.2832H145.287V6.03125H143.287ZM144.287 13.2832H139.185V15.2832H144.287V13.2832ZM138.185 14.2832V49H140.185V14.2832H138.185ZM139.185 48H130.591V50H139.185V48ZM156.798 46.29L156.042 46.9452L156.048 46.9515L156.798 46.29ZM156.773 8.49707L156.048 7.8088L156.045 7.81209L156.773 8.49707ZM172.569 8.49707L171.841 9.18205L171.844 9.18533L172.569 8.49707ZM172.545 46.29L171.792 45.6315L171.792 45.632L172.545 46.29ZM163.146 40.626L162.271 41.1117L162.277 41.1221L163.146 40.626ZM164.684 48.3906C161.46 48.3906 159.136 47.4292 157.548 45.6286L156.048 46.9515C158.106 49.285 161.039 50.3906 164.684 50.3906V48.3906ZM157.553 45.6349C155.96 43.7971 155.088 41.0636 155.088 37.2812H153.088C153.088 41.344 154.023 44.6163 156.042 46.9452L157.553 45.6349ZM155.088 37.2812V16.8711H153.088V37.2812H155.088ZM155.088 16.8711C155.088 13.3432 155.946 10.8369 157.502 9.18205L156.045 7.81209C154.02 9.96584 153.088 13.0422 153.088 16.8711H155.088ZM157.499 9.18533C159.062 7.53816 161.399 6.64062 164.684 6.64062V4.64062C161.034 4.64062 158.099 5.64738 156.048 7.80881L157.499 9.18533ZM164.684 6.64062C167.969 6.64062 170.295 7.53836 171.841 9.18205L173.298 7.81209C171.263 5.64719 168.332 4.64062 164.684 4.64062V6.64062ZM171.844 9.18533C173.414 10.8403 174.279 13.3454 174.279 16.8711H176.279C176.279 13.0401 175.338 9.96239 173.295 7.80881L171.844 9.18533ZM174.279 16.8711V37.2812H176.279V16.8711H174.279ZM174.279 37.2812C174.279 41.0616 173.4 43.7939 171.792 45.6315L173.297 46.9485C175.335 44.6196 176.279 41.3459 176.279 37.2812H174.279ZM171.792 45.632C170.221 47.4291 167.907 48.3906 164.684 48.3906V50.3906C168.328 50.3906 171.255 49.2851 173.298 46.9481L171.792 45.632ZM164.757 42.4805C165.251 42.4805 165.729 42.3583 166.154 42.084C166.574 41.8127 166.885 41.4295 167.11 40.9931C167.546 40.1494 167.71 39.0112 167.71 37.6963H165.71C165.71 38.9041 165.549 39.658 165.333 40.0758C165.233 40.2701 165.137 40.3598 165.069 40.4039C165.005 40.4449 164.914 40.4805 164.757 40.4805V42.4805ZM167.71 37.6963V16.7246H165.71V37.6963H167.71ZM167.71 16.7246C167.71 15.5993 167.547 14.5891 167.091 13.8297C166.587 12.989 165.779 12.5508 164.806 12.5508V14.5508C165.102 14.5508 165.246 14.6415 165.376 14.8587C165.556 15.1573 165.71 15.734 165.71 16.7246H167.71ZM164.806 12.5508C163.795 12.5508 162.925 12.9571 162.36 13.8107C161.844 14.5919 161.657 15.6369 161.657 16.7979H163.657C163.657 15.7941 163.829 15.2155 164.028 14.9144C164.18 14.6856 164.384 14.5508 164.806 14.5508V12.5508ZM161.657 16.7979V37.7451H163.657V16.7979H161.657ZM161.657 37.7451C161.657 39.1124 161.816 40.2912 162.271 41.1116L164.02 40.1403C163.824 39.7889 163.657 39.0471 163.657 37.7451H161.657ZM162.277 41.1221C162.809 42.0528 163.71 42.4805 164.757 42.4805V40.4805C164.306 40.4805 164.133 40.3385 164.014 40.1298L162.277 41.1221ZM188.522 46.3877L187.756 47.0303L187.759 47.0334L188.522 46.3877ZM185.983 6.03125V5.03125H184.983V6.03125H185.983ZM194.333 6.03125H195.333V5.03125H194.333V6.03125ZM194.455 39.2344L193.462 39.3554L193.463 39.3584L194.455 39.2344ZM195.017 40.8457L195.839 40.2765L195.017 40.8457ZM197.873 40.8701L198.685 41.4544L198.69 41.4469L198.695 41.4393L197.873 40.8701ZM198.41 39.2344L197.418 39.1133L197.416 39.1253L197.415 39.1373L198.41 39.2344ZM198.532 6.03125V5.03125H197.532V6.03125H198.532ZM206.882 6.03125H207.882V5.03125H206.882V6.03125ZM204.343 46.3877L205.106 47.0334L205.109 47.0303L204.343 46.3877ZM196.433 48.3906C193.033 48.3906 190.726 47.4451 189.286 45.742L187.759 47.0334C189.704 49.3342 192.671 50.3906 196.433 50.3906V48.3906ZM189.289 45.7451C187.805 43.9762 186.983 41.2821 186.983 37.501H184.983C184.983 41.5324 185.854 44.7627 187.756 47.0303L189.289 45.7451ZM186.983 37.501V6.03125H184.983V37.501H186.983ZM185.983 7.03125H194.333V5.03125H185.983V7.03125ZM193.333 6.03125V37.1592H195.333V6.03125H193.333ZM193.333 37.1592C193.333 37.9132 193.376 38.6454 193.462 39.3554L195.448 39.1133C195.372 38.4887 195.333 37.8375 195.333 37.1592H193.333ZM193.463 39.3584C193.559 40.1266 193.788 40.8278 194.194 41.4149L195.839 40.2765C195.659 40.0172 195.514 39.6442 195.447 39.1103L193.463 39.3584ZM194.194 41.4149C194.724 42.1792 195.551 42.4805 196.433 42.4805V40.4805C196.012 40.4805 195.896 40.3586 195.839 40.2765L194.194 41.4149ZM196.433 42.4805C197.305 42.4805 198.145 42.2043 198.685 41.4544L197.062 40.2858C197.015 40.3498 196.895 40.4805 196.433 40.4805V42.4805ZM198.695 41.4393C199.11 40.84 199.329 40.1185 199.405 39.3315L197.415 39.1373C197.361 39.6849 197.222 40.0539 197.051 40.3009L198.695 41.4393ZM199.403 39.3554C199.489 38.6454 199.532 37.9132 199.532 37.1592H197.532C197.532 37.8375 197.494 38.4887 197.418 39.1133L199.403 39.3554ZM199.532 37.1592V6.03125H197.532V37.1592H199.532ZM198.532 7.03125H206.882V5.03125H198.532V7.03125ZM205.882 6.03125V37.501H207.882V6.03125H205.882ZM205.882 37.501C205.882 41.2821 205.06 43.9762 203.577 45.7451L205.109 47.0303C207.011 44.7627 207.882 41.5324 207.882 37.501H205.882ZM203.579 45.742C202.139 47.4451 199.832 48.3906 196.433 48.3906V50.3906C200.194 50.3906 203.161 49.3342 205.106 47.0334L203.579 45.742ZM217.928 49H216.928V50H217.928V49ZM217.928 6.03125V5.03125H216.928V6.03125H217.928ZM236.092 7.54492L235.423 8.28878L235.429 8.29413L236.092 7.54492ZM238.338 11.7441L237.359 11.947L237.361 11.9573L238.338 11.7441ZM238.021 23.6826L237.102 23.2874L237.098 23.2965L238.021 23.6826ZM234.676 26.5879L234.365 25.6373L230.776 26.81L234.475 27.5676L234.676 26.5879ZM237.508 28.6143L236.613 29.0615L236.617 29.0697L236.622 29.0778L237.508 28.6143ZM238.338 49V50H239.338V49H238.338ZM229.866 49H228.866V50H229.866V49ZM229.085 29.8594L228.562 30.712L228.578 30.7218L228.595 30.731L229.085 29.8594ZM226.619 29.3955V28.3955H225.619V29.3955H226.619ZM226.619 49V50H227.619V49H226.619ZM226.668 21.9492H225.668V22.9492H226.668V21.9492ZM226.668 13.9902V12.9902H225.668V13.9902H226.668ZM218.928 49V6.03125H216.928V49H218.928ZM217.928 7.03125H231.111V5.03125H217.928V7.03125ZM231.111 7.03125C233.172 7.03125 234.552 7.50596 235.423 8.28875L236.76 6.80109C235.385 5.56565 233.445 5.03125 231.111 5.03125V7.03125ZM235.429 8.29413C236.356 9.11349 237.018 10.3021 237.359 11.947L239.317 11.5412C238.909 9.57286 238.073 7.96203 236.754 6.79572L235.429 8.29413ZM237.361 11.9573C237.732 13.6594 237.924 15.6924 237.924 18.0674H239.924C239.924 15.5921 239.725 13.4097 239.315 11.531L237.361 11.9573ZM237.924 18.0674C237.924 20.3409 237.629 22.0613 237.102 23.2874L238.939 24.0778C239.616 22.5045 239.924 20.4813 239.924 18.0674H237.924ZM237.098 23.2965C236.641 24.389 235.776 25.1765 234.365 25.6373L234.986 27.5384C236.864 26.9251 238.228 25.7757 238.943 24.0688L237.098 23.2965ZM234.475 27.5676C235.576 27.793 236.235 28.3047 236.613 29.0615L238.402 28.167C237.706 26.7754 236.478 25.9362 234.876 25.6082L234.475 27.5676ZM236.622 29.0778C237.076 29.9455 237.338 31.1457 237.338 32.7402H239.338C239.338 30.9494 239.047 29.3989 238.394 28.1508L236.622 29.0778ZM237.338 32.7402V49H239.338V32.7402H237.338ZM238.338 48H229.866V50H238.338V48ZM230.866 49V32.1787H228.866V49H230.866ZM230.866 32.1787C230.866 31.4953 230.797 30.8688 230.619 30.3397C230.439 29.8051 230.119 29.2938 229.575 28.9878L228.595 30.731C228.572 30.7179 228.643 30.7396 228.723 30.9782C228.805 31.2222 228.866 31.6089 228.866 32.1787H230.866ZM229.608 29.0068C228.857 28.547 227.8 28.3955 226.619 28.3955V30.3955C227.717 30.3955 228.303 30.5533 228.562 30.712L229.608 29.0068ZM225.619 29.3955V49H227.619V29.3955H225.619ZM226.619 48H217.928V50H226.619V48ZM226.668 22.9492H228.743V20.9492H226.668V22.9492ZM228.743 22.9492C229.234 22.9492 229.703 22.8115 230.11 22.5158C230.507 22.2278 230.789 21.831 230.989 21.396C231.377 20.551 231.525 19.4064 231.525 18.0674H229.525C229.525 19.3162 229.377 20.1126 229.171 20.5615C229.074 20.7735 228.984 20.8619 228.935 20.8974C228.897 20.9252 228.847 20.9492 228.743 20.9492V22.9492ZM231.525 18.0674C231.525 17.2076 231.492 16.4712 231.421 15.8684C231.352 15.2883 231.239 14.7433 231.029 14.3243L229.24 15.2187C229.291 15.3205 229.373 15.5852 229.435 16.1038C229.493 16.5996 229.525 17.2507 229.525 18.0674H231.525ZM231.029 14.3243C230.557 13.3801 229.66 12.9902 228.67 12.9902V14.9902C229.112 14.9902 229.192 15.1212 229.24 15.2187L231.029 14.3243ZM228.67 12.9902H226.668V14.9902H228.67V12.9902ZM225.668 13.9902V21.9492H227.668V13.9902H225.668ZM251.215 46.4609L250.465 47.123L250.468 47.1265L251.215 46.4609ZM248.627 32.9355V31.9355H247.627V32.9355H248.627ZM257.123 32.9355H258.123V31.9355H257.123V32.9355ZM257.562 40.6504L256.673 41.1077L256.681 41.1231L256.69 41.1382L257.562 40.6504ZM260.761 40.7969L259.933 40.2354L259.926 40.2457L259.92 40.2561L260.761 40.7969ZM260.834 35.2549L259.874 35.5342L259.875 35.539L260.834 35.2549ZM259.467 32.7158L258.678 33.3309L258.685 33.3396L258.692 33.3482L259.467 32.7158ZM256.806 29.8838L256.117 30.609L256.12 30.6114L256.806 29.8838ZM252.948 26.2217L253.637 25.4964L253.635 25.4943L252.948 26.2217ZM251.166 8.52148L250.419 7.85672L250.416 7.86028L251.166 8.52148ZM266.938 8.79004L266.15 9.40652L266.153 9.41027L266.938 8.79004ZM269.428 18.3604V19.3604H270.428V18.3604H269.428ZM260.688 18.3604H259.688V19.3604H260.688V18.3604ZM260.175 14.0391L259.468 14.7462L259.476 14.7548L259.485 14.7632L260.175 14.0391ZM257.318 14.1367L256.55 13.4965L256.547 13.4998L257.318 14.1367ZM257.343 17.5547L256.436 17.9764L257.343 17.5547ZM259.271 19.9717L259.964 19.2505L259.96 19.2464L259.271 19.9717ZM264.228 24.7324L263.535 25.4536L263.538 25.4571L264.228 24.7324ZM266.962 27.7354L266.175 28.3527L266.18 28.3586L266.962 27.7354ZM268.964 31.3975L268.023 31.7366L268.024 31.7401L268.964 31.3975ZM267.475 45.9727L266.637 45.4262L266.636 45.4277L267.475 45.9727ZM259.711 48.3906C255.93 48.3906 253.435 47.4482 251.961 45.7954L250.468 47.1265C252.478 49.3799 255.647 50.3906 259.711 50.3906V48.3906ZM251.964 45.7989C250.476 44.114 249.627 41.3005 249.627 37.1348H247.627C247.627 41.4976 248.503 44.9016 250.465 47.123L251.964 45.7989ZM249.627 37.1348V32.9355H247.627V37.1348H249.627ZM248.627 33.9355H257.123V31.9355H248.627V33.9355ZM256.123 32.9355V38.3066H258.123V32.9355H256.123ZM256.123 38.3066C256.123 39.3793 256.278 40.3399 256.673 41.1077L258.452 40.193C258.261 39.8216 258.123 39.2196 258.123 38.3066H256.123ZM256.69 41.1382C257.211 42.0708 258.117 42.4805 259.149 42.4805V40.4805C258.685 40.4805 258.533 40.3368 258.435 40.1626L256.69 41.1382ZM259.149 42.4805C260.108 42.4805 261.051 42.1939 261.602 41.3376L259.92 40.2561C259.884 40.3113 259.753 40.4805 259.149 40.4805V42.4805ZM261.588 41.3584C262.072 40.6449 262.225 39.6409 262.225 38.5508H260.225C260.225 39.544 260.068 40.0374 259.933 40.2354L261.588 41.3584ZM262.225 38.5508C262.225 37.1745 262.09 35.9726 261.793 34.9708L259.875 35.539C260.099 36.295 260.225 37.2903 260.225 38.5508H262.225ZM261.794 34.9756C261.493 33.9386 260.969 32.9741 260.241 32.0834L258.692 33.3482C259.267 34.0526 259.655 34.7808 259.874 35.5342L261.794 34.9756ZM260.255 32.1008C259.578 31.2321 258.651 30.2494 257.492 29.1562L256.12 30.6114C257.239 31.6666 258.086 32.572 258.678 33.3309L260.255 32.1008ZM257.494 29.1586L253.637 25.4965L252.26 26.9469L256.117 30.609L257.494 29.1586ZM253.635 25.4943C250.925 22.9378 249.627 20.082 249.627 16.8955H247.627C247.627 20.7077 249.21 24.0694 252.262 26.949L253.635 25.4943ZM249.627 16.8955C249.627 13.3733 250.442 10.8555 251.916 9.18269L250.416 7.86028C248.505 10.0286 247.627 13.0935 247.627 16.8955H249.627ZM251.913 9.18624C253.386 7.53088 255.548 6.64062 258.563 6.64062V4.64062C255.133 4.64062 252.364 5.67095 250.419 7.85673L251.913 9.18624ZM258.563 6.64062C262.347 6.64062 264.773 7.64758 266.15 9.40651L267.725 8.17357C265.814 5.73327 262.658 4.64062 258.563 4.64062V6.64062ZM266.153 9.41027C267.612 11.255 268.428 14.1791 268.428 18.3604H270.428C270.428 13.9804 269.584 10.5243 267.722 8.1698L266.153 9.41027ZM269.428 17.3604H260.688V19.3604H269.428V17.3604ZM261.688 18.3604V15.4062H259.688V18.3604H261.688ZM261.688 15.4062C261.688 14.6171 261.45 13.8728 260.864 13.3149L259.485 14.7632C259.583 14.8563 259.688 15.0235 259.688 15.4062H261.688ZM260.882 13.332C260.326 12.7765 259.6 12.5508 258.832 12.5508V14.5508C259.203 14.5508 259.372 14.6506 259.468 14.7462L260.882 13.332ZM258.832 12.5508C257.96 12.5508 257.126 12.806 256.55 13.4965L258.087 14.7769C258.162 14.6862 258.337 14.5508 258.832 14.5508V12.5508ZM256.547 13.4998C256.057 14.0932 255.854 14.8244 255.854 15.6016H257.854C257.854 15.1743 257.961 14.9289 258.089 14.7736L256.547 13.4998ZM255.854 15.6016C255.854 16.3844 256.066 17.1803 256.436 17.9764L258.249 17.133C257.969 16.5293 257.854 16.0231 257.854 15.6016H255.854ZM256.436 17.9764C256.839 18.8438 257.587 19.7519 258.583 20.697L259.96 19.2464C259.035 18.3685 258.497 17.6653 258.249 17.133L256.436 17.9764ZM258.579 20.6929L263.535 25.4536L264.92 24.0112L259.964 19.2505L258.579 20.6929ZM263.538 25.4571C264.497 26.3684 265.376 27.3335 266.175 28.3526L267.749 27.1181C266.888 26.0213 265.944 24.9845 264.917 24.0077L263.538 25.4571ZM266.18 28.3586C266.934 29.3055 267.551 30.4276 268.023 31.7366L269.905 31.0584C269.367 29.5678 268.65 28.2486 267.744 27.1121L266.18 28.3586ZM268.024 31.7401C268.477 32.9821 268.721 34.5513 268.721 36.4756H270.721C270.721 34.396 270.459 32.5797 269.903 31.0548L268.024 31.7401ZM268.721 36.4756C268.721 40.4045 267.989 43.3536 266.637 45.4262L268.312 46.5191C269.955 44.0018 270.721 40.6196 270.721 36.4756H268.721ZM266.636 45.4277C265.402 47.3257 263.202 48.3906 259.711 48.3906V50.3906C263.61 50.3906 266.585 49.1769 268.313 46.5176L266.636 45.4277Z" fill="#ECF3DA"/>
</g>
<defs>
<clipPath id="clip0_1_2">
<rect width="275" height="54" fill="white"/>
</clipPath>
</defs>
</svg>
